<svg width="220" height="160" viewBox="0 0 220 160" fill="none" xmlns="http://www.w3.org/2000/svg">
<rect x="34" y="14" width="124" height="60" rx="12" fill="url(#paint0_linear_141_3619)"/>
<rect x="42" y="14" width="124" height="60" rx="12" fill="#E7EEFE"/>
<mask id="mask0_141_3619" style="mask-type:alpha" maskUnits="userSpaceOnUse" x="42" y="14" width="124" height="60">
<rect x="42" y="14" width="124" height="60" rx="12" fill="url(#paint1_linear_141_3619)"/>
</mask>
<g mask="url(#mask0_141_3619)">
<rect opacity="0.35" x="14" y="-46.7812" width="110.436" height="190.35" transform="rotate(-30 14 -46.7812)" fill="url(#paint2_linear_141_3619)"/>
</g>
<rect x="56" y="34" width="36" height="6" rx="3" fill="#6885FF"/>
<rect x="56" y="48" width="64" height="6" rx="3" fill="#6885FF"/>
<rect x="54" y="86" width="124" height="60" rx="12" fill="url(#paint3_linear_141_3619)"/>
<rect x="62" y="86" width="124" height="60" rx="12" fill="#E7EEFE"/>
<mask id="mask1_141_3619" style="mask-type:alpha" maskUnits="userSpaceOnUse" x="62" y="86" width="124" height="60">
<rect x="62" y="86" width="124" height="60" rx="12" fill="url(#paint4_linear_141_3619)"/>
</mask>
<g mask="url(#mask1_141_3619)">
<rect opacity="0.35" x="39.5352" y="-13.4902" width="110.436" height="190.35" transform="rotate(-30 39.5352 -13.4902)" fill="url(#paint5_linear_141_3619)"/>
</g>
<rect x="76" y="106" width="36" height="6" rx="3" fill="#6885FF" fill-opacity="0.5"/>
<rect x="76" y="120" width="64" height="6" rx="3" fill="#6885FF" fill-opacity="0.5"/>
<defs>
<linearGradient id="paint0_linear_141_3619" x1="41.8481" y1="71.5" x2="24.9451" y2="65.2765" gradientUnits="userSpaceOnUse">
<stop offset="0.0520833" stop-color="#D0DEFF"/>
<stop offset="1" stop-color="#E6EDFD"/>
</linearGradient>
<linearGradient id="paint1_linear_141_3619" x1="159" y1="2.06338e-06" x2="91.1619" y2="107.149" gradientUnits="userSpaceOnUse">
<stop stop-color="#5375FF"/>
<stop offset="1" stop-color="#0033FF"/>
</linearGradient>
<linearGradient id="paint2_linear_141_3619" x1="-77.8768" y1="-178.172" x2="93.8855" y2="37.9288" gradientUnits="userSpaceOnUse">
<stop stop-color="white"/>
<stop offset="1" stop-color="white" stop-opacity="0"/>
</linearGradient>
<linearGradient id="paint3_linear_141_3619" x1="79.8333" y1="140.643" x2="75.9505" y2="108.658" gradientUnits="userSpaceOnUse">
<stop offset="1" stop-color="#DCE7FF"/>
<stop offset="0.0520833" stop-color="#D1DFFF"/>
</linearGradient>
<linearGradient id="paint4_linear_141_3619" x1="179" y1="72" x2="111.162" y2="179.149" gradientUnits="userSpaceOnUse">
<stop stop-color="#5375FF"/>
<stop offset="1" stop-color="#0033FF"/>
</linearGradient>
<linearGradient id="paint5_linear_141_3619" x1="-52.3417" y1="-144.881" x2="119.421" y2="71.2198" gradientUnits="userSpaceOnUse">
<stop stop-color="white"/>
<stop offset="1" stop-color="white" stop-opacity="0"/>
</linearGradient>
</defs>
</svg>
